<svg xmlns="http://www.w3.org/2000/svg" xmlns:xlink="http://www.w3.org/1999/xlink" xml:space="preserve" style="shape-rendering:geometricPrecision;text-rendering:geometricPrecision;image-rendering:optimizeQuality;" viewBox="0 0 147 153.75" x="0px" y="0px" fill-rule="evenodd" clip-rule="evenodd"><defs><style type="text/css">
   
    .fil0 {fill:black}
   
  </style></defs><g><path class="fil0" d="M26 36c-16,-2 -24,-5 -21,-10 -5,-3 -6,-5 -5,-9 2,-2 9,-4 18,-9 17,-16 43,-6 40,22 12,10 65,-2 73,15 10,-8 9,-20 3,-36 15,15 19,31 2,47 -2,15 1,27 9,35l-4 31 -19 2c-3,-6 4,-9 13,-11l-1 -18c-10,-1 -19,-5 -25,-15 -16,6 -31,7 -45,4l-3 40 -20 0c0,-5 4,-9 12,-12 -3,-43 -31,-40 -26,-75zm0 -26c1,0 3,1 3,3 0,1 -1,3 -3,3 -1,0 -3,-1 -3,-3 0,-1 1,-3 3,-3z"/></g><text x="0" y="138" fill="#000000" font-size="5px" font-weight="bold" font-family="'Helvetica Neue', Helvetica, Arial-Unicode, Arial, Sans-serif">Created by Iga</text><text x="0" y="143" fill="#000000" font-size="5px" font-weight="bold" font-family="'Helvetica Neue', Helvetica, Arial-Unicode, Arial, Sans-serif">from the Noun Project</text></svg>